<?xml version="1.0" encoding="UTF-8" standalone="no"?>
<svg
        xmlns:dc="http://purl.org/dc/elements/1.1/"
        xmlns:cc="http://creativecommons.org/ns#"
        xmlns:rdf="http://www.w3.org/1999/02/22-rdf-syntax-ns#"
        xmlns="http://www.w3.org/2000/svg"
        xmlns:sodipodi="http://sodipodi.sourceforge.net/DTD/sodipodi-0.dtd"
        xmlns:inkscape="http://www.inkscape.org/namespaces/inkscape"
        width="9.0984917mm"
        height="10.303669mm"
        viewBox="0 0 9.0984917 10.303669"
        version="1.1"
        id="svg4394"
        inkscape:version="1.0.2 (e86c870879, 2021-01-15)"
        sodipodi:docname="dot-1.svg">
  <defs
     id="defs4388" />
  <sodipodi:namedview
     id="base"
     pagecolor="#ffffff"
     bordercolor="#666666"
     borderopacity="1.0"
     inkscape:pageopacity="0.0"
     inkscape:pageshadow="2"
     inkscape:zoom="3.959798"
     inkscape:cx="122.9584"
     inkscape:cy="3.5303454"
     inkscape:document-units="mm"
     inkscape:current-layer="layer1"
     inkscape:document-rotation="0"
     showgrid="false"
     inkscape:window-width="1920"
     inkscape:window-height="1016"
     inkscape:window-x="0"
     inkscape:window-y="24"
     inkscape:window-maximized="1" />
  <metadata
     id="metadata4391">
    <rdf:RDF>
      <cc:Work
         rdf:about="">
        <dc:format>image/svg+xml</dc:format>
        <dc:type
           rdf:resource="http://purl.org/dc/dcmitype/StillImage" />
        <dc:title></dc:title>
      </cc:Work>
    </rdf:RDF>
  </metadata>
  <g
     inkscape:label="Layer 1"
     inkscape:groupmode="layer"
     id="layer1"
     transform="translate(-105.06385,-105.97317)">
    <g
       id="Raggruppa_38"
       data-name="Raggruppa 38"
       transform="matrix(0.26458333,0,0,0.26458333,136.81385,48.029417)">
      <g
         id="Raggruppa_5"
         data-name="Raggruppa 5"
         transform="translate(-120,223.555)">
        <path
           id="Tracciato_9"
           data-name="Tracciato 9"
           d="m -193.79,177.994 6.112,-11.443 1.43,-6.242 -2.731,-4.811 -7.087,-2.146 -5.852,3.186 -1.951,4.421 0.975,6.047 4.551,7.282 3.251,4.226 z"
           transform="translate(212.188,-149.087)"
           fill="#ffdacf"
           stroke="#707070"
           stroke-width="1" />
        <g
           id="pin">
          <path
             id="Tracciato_7"
             data-name="Tracciato 7"
             d="M 0,0 H 34.388 V 34.388 H 0 Z"
             fill="none" />
          <path
             id="Tracciato_8"
             data-name="Tracciato 8"
             d="M 15.03,2 A 10.022,10.022 0 0 0 5,12.03 c 0,7.522 10.03,18.627 10.03,18.627 0,0 10.03,-11.1 10.03,-18.627 A 10.022,10.022 0 0 0 15.03,2 Z M 7.866,12.03 a 7.164,7.164 0 1 1 14.328,0 c 0,4.127 -4.127,10.3 -7.164,14.156 C 12.049,22.36 7.866,16.113 7.866,12.03 Z"
             transform="translate(2.164,0.866)"
             fill="#7a191e" />
          <circle
             id="Ellisse_1"
             data-name="Ellisse 1"
             cx="3.582"
             cy="3.582"
             r="3.582"
             transform="translate(13.612,9.313)"
             fill="#7a191e" />
        </g>
      </g>
      <g
         id="Ellisse_2"
         data-name="Ellisse 2"
         transform="translate(-114,221)"
         fill="#ffffff"
         stroke="#7a191e"
         stroke-width="2">
        <circle
           cx="3"
           cy="3"
           r="3"
           stroke="none"
           id="circle1049" />
        <circle
           cx="3"
           cy="3"
           r="2"
           fill="none"
           id="circle1051" />
      </g>
      <g
         id="Ellisse_3"
         data-name="Ellisse 3"
         transform="translate(-106,219)"
         fill="#ffffff"
         stroke="#7a191e"
         stroke-width="2">
        <circle
           cx="3"
           cy="3"
           r="3"
           stroke="none"
           id="circle1054" />
        <circle
           cx="3"
           cy="3"
           r="2"
           fill="none"
           id="circle1056" />
      </g>
      <g
         id="Ellisse_4"
         data-name="Ellisse 4"
         transform="translate(-98,221)"
         fill="#ffffff"
         stroke="#7a191e"
         stroke-width="2">
        <circle
           cx="3"
           cy="3"
           r="3"
           stroke="none"
           id="circle1059" />
        <circle
           cx="3"
           cy="3"
           r="2"
           fill="none"
           id="circle1061" />
      </g>
    </g>
  </g>
</svg>
