<?xml version="1.0" encoding="UTF-8" standalone="no"?>
<svg
   xmlns:dc="http://purl.org/dc/elements/1.1/"
   xmlns:cc="http://creativecommons.org/ns#"
   xmlns:rdf="http://www.w3.org/1999/02/22-rdf-syntax-ns#"
   xmlns:svg="http://www.w3.org/2000/svg"
   xmlns="http://www.w3.org/2000/svg"
   xmlns:sodipodi="http://sodipodi.sourceforge.net/DTD/sodipodi-0.dtd"
   xmlns:inkscape="http://www.inkscape.org/namespaces/inkscape"
   width="11.887332mm"
   height="16.148844mm"
   viewBox="0 0 11.887332 16.148844"
   version="1.1"
   id="svg1193"
   inkscape:version="1.0.2 (e86c870879, 2021-01-15)"
   sodipodi:docname="star-2.svg">
  <defs
     id="defs1187" />
  <sodipodi:namedview
     id="base"
     pagecolor="#ffffff"
     bordercolor="#666666"
     borderopacity="1.0"
     inkscape:pageopacity="0.0"
     inkscape:pageshadow="2"
     inkscape:zoom="3.959798"
     inkscape:cx="69.299199"
     inkscape:cy="67.653315"
     inkscape:document-units="mm"
     inkscape:current-layer="layer1"
     inkscape:document-rotation="0"
     showgrid="false"
     inkscape:window-width="1920"
     inkscape:window-height="1016"
     inkscape:window-x="0"
     inkscape:window-y="24"
     inkscape:window-maximized="1" />
  <metadata
     id="metadata1190">
    <rdf:RDF>
      <cc:Work
         rdf:about="">
        <dc:format>image/svg+xml</dc:format>
        <dc:type
           rdf:resource="http://purl.org/dc/dcmitype/StillImage" />
        <dc:title></dc:title>
      </cc:Work>
    </rdf:RDF>
  </metadata>
  <g
     inkscape:label="Layer 1"
     inkscape:groupmode="layer"
     id="layer1"
     transform="translate(1.4079515,-78.10415)">
    <g
       id="Raggruppa_44"
       data-name="Raggruppa 44"
       transform="matrix(0.26458333,0,0,0.26458333,36.295173,4.8359988)">
      <g
         id="Poligono_2-2"
         data-name="Poligono 2"
         transform="rotate(180,-55.5,168.977)"
         fill="#64582c">
        <path
           d="M 15.092113,33.5 H 1.9078871 L 8.5,6.3560057 Z"
           stroke="none"
           id="path1031" />
        <path
           d="M 8.5,12.712002 3.8157721,32 H 13.184228 L 8.5,12.712002 M 8.5,0 17,35 H 0 Z"
           stroke="none"
           fill="#141414"
           id="path1033" />
      </g>
      <g
         id="Poligono_1-2"
         data-name="Poligono 1"
         transform="translate(-142.5,276.919)"
         fill="#d3ba59">
        <path
           d="m 34.278904,40.419712 -11.083954,-6.182529 -0.730699,-0.407582 -0.7307,0.407582 -11.083954,6.182529 2.384203,-12.62076 0.15168,-0.802931 -0.59235,-0.562879 -9.2697018,-8.808466 12.5910518,-1.603594 0.822491,-0.104751 0.34881,-0.7522 5.37847,-11.5985447 5.378469,11.5985447 0.34881,0.7522 0.822491,0.104751 12.591051,1.603594 -9.269703,8.808466 -0.592348,0.562879 0.15168,0.802931 z"
           stroke="none"
           id="path1036" />
        <path
           d="m 22.464251,7.1311798 -4.017661,8.6639922 -0.69762,1.504389 -1.644979,0.209501 -9.4571366,1.204458 6.9795456,6.632261 1.1847,1.12575 -0.30337,1.605862 -1.789117,9.470672 8.284238,-4.620872 1.4614,-0.815163 1.461399,0.815163 8.284231,4.620868 L 30.420761,28.0774 30.11739,26.471531 31.302101,25.345772 38.281643,18.71352 28.824501,17.509062 27.17952,17.299561 26.481901,15.795162 22.464251,7.1311798 M 22.464251,0 29.203522,14.533102 44.928501,16.535831 33.368622,27.520512 36.347919,43.291363 22.464251,35.547173 8.5805817,43.291363 11.559872,27.520512 0,16.535831 15.72497,14.533102 Z"
           stroke="none"
           fill="#141414"
           id="path1038" />
      </g>
      <circle
         id="Ellisse_10-2"
         data-name="Ellisse 10"
         cx="4.6350002"
         cy="4.6350002"
         r="4.6350002"
         transform="translate(-124.829,296.967)"
         fill="#141414" />
    </g>
  </g>
</svg>
